<svg width="31" height="24" viewBox="0 0 31 24" fill="none" xmlns="http://www.w3.org/2000/svg">
<path d="M0.258139 16.3414C0.195445 11.3118 1.77037 6.76972 4.42838 2.55624C4.67267 2.16927 4.96668 1.8893 5.38717 1.71203C6.92101 1.06671 8.5089 0.592185 10.1238 0.200887C10.8005 0.0365855 11.3745 0.0798228 11.5906 0.904575C11.7658 1.57259 12.2273 1.70014 12.8629 1.59745C14.561 1.32181 16.2678 1.31317 17.9681 1.59205C18.6351 1.70122 19.1247 1.59421 19.3139 0.847285C19.4825 0.180349 19.9225 0.027938 20.5797 0.177107C22.2821 0.564081 23.9425 1.06671 25.5476 1.76067C25.9411 1.93038 26.1843 2.19737 26.4048 2.53462C29.5817 7.41071 31.0377 12.7343 30.6345 18.5595C30.5913 19.181 30.3848 19.5528 29.8681 19.8966C28.01 21.131 26.0416 22.1211 23.9554 22.9178C23.0647 23.2572 22.5362 23.1221 22.1546 22.2768C22.0735 22.0973 21.9611 21.9276 21.8379 21.7741C21.1872 20.9602 21.2542 20.4219 22.3362 20.0544C22.7794 19.9041 23.7025 19.7571 23.4863 19.2177C23.202 18.5119 22.5048 19.1713 22.0508 19.341C17.5833 21.0088 13.1375 20.9851 8.69374 19.275C8.39972 19.1615 8.11436 19.0059 7.81062 18.9443C7.63118 18.9075 7.41715 19.0167 7.32852 19.2264C7.20637 19.5182 7.50147 19.5161 7.6301 19.6231C7.71982 19.6966 7.84413 19.7269 7.94249 19.7917C8.46026 20.1344 9.48931 20.1906 9.49579 20.6694C9.50876 21.5072 8.75968 22.1979 8.27974 22.921C8.01167 23.3242 7.63983 23.1491 7.31339 23.0367C5.01208 22.2487 2.86751 21.1548 0.861301 19.7777C0.420281 19.475 0.223549 19.1453 0.251653 18.6092C0.288405 17.8525 0.258139 17.0959 0.258139 16.3414Z" fill="#3F717A"/>
<path d="M23.213 12.7992C23.2 14.4746 22.0077 15.8582 20.555 15.8842C19.0795 15.9112 17.7445 14.4282 17.7564 12.7754C17.7672 11.1508 19.0136 9.74879 20.4652 9.72825C22.025 9.70555 23.226 11.0481 23.213 12.7992Z" fill="#1E1E1C"/>
<path d="M10.3413 9.73148C11.8189 9.71526 13.0879 11.0664 13.1301 12.6997C13.1733 14.36 11.8859 15.8614 10.404 15.8809C8.90365 15.9004 7.65409 14.4833 7.65625 12.7635C7.65733 11.087 8.84311 9.74769 10.3413 9.73148Z" fill="#1E1E1B"/>
</svg>
