<svg width="77" height="64" viewBox="0 0 77 64" fill="none" xmlns="http://www.w3.org/2000/svg">
<g clip-path="url(#clip0_35_1008)">
<path d="M38.5443 31.4122C38.9108 34.416 37.4892 36.5865 35.3916 38.617C27.7655 46.0052 20.2215 53.4711 12.665 60.9246C11.2844 62.2897 9.83756 63.5055 7.89156 63.9999C7.15548 63.9999 6.41941 63.9999 5.68018 63.9999C3.1529 63.5179 1.20689 62.3519 0.496094 59.7306C0.660367 59.1491 1.13423 58.7977 1.5386 58.3997C11.9668 48.1321 22.3982 37.8645 32.8327 27.6031C33.237 27.205 33.6035 26.748 34.169 26.5427C36.2698 26.8817 38.2569 29.0956 38.5443 31.4122Z" fill="#B58058"/>
<path d="M38.5441 31.4123C37.5617 29.388 36.4907 27.4446 34.0993 26.7076C33.6286 26.6983 33.1073 26.7667 33.0599 26.0795C36.4623 22.7026 39.8678 19.3318 43.2575 15.9456C43.6461 15.5569 44.2369 15.2801 44.2053 14.5961C44.8655 13.5668 45.9238 12.9511 46.8368 12.1893C47.6139 11.5363 47.6424 11.0294 46.8147 10.336C43.8894 7.88573 40.5154 6.55485 36.7371 5.97959C33.5938 5.50073 30.5895 5.97959 27.5821 6.75697C27.0071 6.90623 26.41 7.3229 25.8066 6.79429C29.6765 3.16859 34.3173 1.12875 39.5487 0.295404C39.9499 0.233213 40.4017 0.373142 40.7208 0C42.6162 0 44.5085 0 46.404 0C48.0404 0.416675 49.6926 0.771159 51.3069 1.25935C55.2021 2.44097 58.6234 4.46837 61.6625 7.12078C62.1079 7.50947 62.9451 7.85774 62.2848 8.71286C60.402 11.0699 58.0769 13.0102 55.9761 15.1589C54.2007 16.9779 52.3178 18.6944 50.5645 20.5414C49.4083 20.84 48.6027 21.6204 47.7877 22.4227C44.7234 25.4358 41.6274 28.4178 38.5441 31.4123Z" fill="#728088"/>
<path d="M33.06 26.0794C33.4075 26.2877 33.755 26.4992 34.0994 26.7075C33.8688 26.9874 33.6634 27.289 33.4075 27.5408C22.7392 38.0479 12.0646 48.5518 1.39001 59.0527C1.16887 59.2703 0.909822 59.4476 0.666571 59.6466C-0.0568639 59.4942 0.344342 58.7572 0 58.409C0 57.5819 0 56.7516 0 55.9245C0.660253 54.1521 1.8228 52.7497 3.1749 51.4281C10.7188 44.0648 18.2533 36.6921 25.7277 29.2573C27.7875 27.205 30.0083 25.784 33.06 26.0794Z" fill="#A47450"/>
<path d="M50.5646 20.5447C50.1476 20.1995 50.5425 20.0129 50.732 19.8264C54.3966 16.2131 58.0675 12.6061 61.7415 9.00214C61.8805 8.86532 62.1017 8.80935 62.2849 8.71606C61.7984 13.7815 64.253 16.3375 69.3708 16.0949C69.9078 15.9923 69.8604 16.325 69.7404 16.6267C69.5445 17.1211 69.1244 17.4538 68.7547 17.8207C66.4202 20.1249 64.1045 22.4508 61.7289 24.7114C60.8917 25.5105 60.917 26.0547 61.7289 26.8725C63.5201 28.676 65.5482 30.2588 67.0425 32.339C64.1014 35.9025 64.1014 35.9025 60.8728 32.7402C60.2789 32.1587 59.7134 31.5492 59.0879 30.9988C57.8274 29.8856 57.0281 28.9217 57.5905 26.8787C58.4276 23.8314 55.3886 20.6131 52.1347 20.526C51.6134 20.5104 51.089 20.5353 50.5646 20.5447Z" fill="#5E6A71"/>
<path d="M67.0425 32.3389C64.7016 30.5665 62.8377 28.3027 60.6958 26.3251C60.0135 25.6938 60.6137 25.3269 61.0054 24.9413C63.6054 22.376 66.2211 19.8262 68.7989 17.2391C69.0833 16.953 69.8446 16.7851 69.3739 16.0917C70.0594 15.5288 70.587 15.8056 71.1335 16.3529C72.9026 18.1222 74.6875 19.8791 76.4945 21.6111C77.0253 22.1179 77.2622 22.4755 76.5988 23.1036C73.3891 26.1603 70.2237 29.2573 67.0425 32.3389Z" fill="#728088"/>
<path d="M25.8098 6.79422C27.898 6.40864 29.8945 5.69967 32.0554 5.51621C37.5017 5.05289 42.373 6.30913 46.6157 9.70472C48.6217 11.3092 48.5996 11.5673 46.4356 12.9977C45.6679 13.5045 45.2667 14.5058 44.2053 14.5991C40.4365 10.9361 36.1875 10.1929 31.1392 12.4224C30.0746 12.892 29.4049 12.8422 28.6372 11.9342C27.7369 10.8677 26.7323 9.8602 25.6392 8.98643C24.4988 8.06912 24.5809 7.43789 25.8098 6.79422Z" fill="#5E6A71"/>
</g>
<defs>
<clipPath id="clip0_35_1008">
<rect width="77" height="64" fill="white"/>
</clipPath>
</defs>
</svg>
