<svg width="28" height="24" viewBox="0 0 28 24" fill="none" xmlns="http://www.w3.org/2000/svg">
<path d="M7.36808 14.5135C6.96894 14.484 6.45676 14.3517 5.94004 14.2545C4.32124 13.95 2.70447 13.6318 1.0877 13.3167C0.59217 13.2201 0.114808 12.672 0.0265011 12.1099C-0.110248 11.2367 0.286376 10.5439 1.1205 10.2013C9.2634 6.85383 17.4063 3.50641 25.5492 0.15898C26.6018 -0.273851 27.659 0.206068 27.9476 1.24707C28.0612 1.65585 27.9628 2.05913 27.9083 2.4614C27.7332 3.74787 27.55 5.03283 27.3678 6.3183C27.1892 7.57872 27.0045 8.83864 26.8274 10.0996C26.618 11.5914 26.4166 13.0848 26.2077 14.5767C26.0321 15.8296 25.8484 17.081 25.6718 18.3334C25.5124 19.4625 25.359 20.5922 25.2005 21.7214C25.1541 22.051 25.1173 22.3831 25.0471 22.7078C24.8034 23.8359 23.4596 24.365 22.4928 23.7227C19.4702 21.7164 16.4465 19.7105 13.4229 17.7052C12.2194 16.9071 12.0837 15.5706 13.1212 14.5732C15.6397 12.1525 18.1642 9.73787 20.6863 7.32073C20.7166 7.29167 20.7463 7.26262 20.7776 7.23406C20.9361 7.09029 21.0173 6.92998 20.8725 6.7321C20.7473 6.56127 20.5727 6.54925 20.3396 6.69804C18.5634 7.82971 16.7887 8.96288 15.0129 10.0946C12.8779 11.4552 10.7414 12.8138 8.6069 14.1754C8.2673 14.3933 7.90499 14.5241 7.36808 14.5135Z" fill="#3F717A"/>
</svg>
