<svg width="25" height="23" viewBox="0 0 25 23" fill="none" xmlns="http://www.w3.org/2000/svg">
<path d="M24.8291 22.6501C21.6235 18.3913 18.4207 14.1314 15.2053 9.88044C15.0069 9.61784 15.0157 9.48062 15.2298 9.23875C16.5144 7.7905 17.7784 6.32448 19.0493 4.86438C20.4351 3.27298 21.8199 1.68256 23.2764 0.0102097C22.3875 0.0102097 21.594 0.0309447 20.8024 0.00132804C20.4066 -0.0144675 20.1444 0.109921 19.8831 0.412997C17.8816 2.7379 15.8584 5.04405 13.8519 7.365C13.6329 7.61872 13.5357 7.66808 13.3058 7.35908C11.5635 5.01542 9.80063 2.68953 8.04754 0.354755C7.89531 0.152374 7.75977 0.000341786 7.46121 0.00231623C5.07268 0.0161373 2.68317 0.0102106 0.293658 0.0111978C0.218034 0.0111978 0.14339 0.0250218 0 0.0388429C0.130623 0.210619 0.224908 0.336981 0.320174 0.462358C3.35003 4.44382 6.37498 8.42824 9.4176 12.3988C9.66215 12.7177 9.63858 12.8816 9.3793 13.161C8.69967 13.8945 8.05834 14.6645 7.4013 15.4187C5.23669 17.9056 3.07111 20.3914 0.811237 22.9868C1.76095 22.9868 2.5879 22.973 3.41485 22.9937C3.72324 23.0016 3.92261 22.8999 4.12395 22.6669C5.92615 20.5809 7.74013 18.5058 9.55117 16.4277C10.0629 15.8403 10.5765 15.2549 11.1049 14.6507C11.2237 14.7978 11.318 14.9103 11.4064 15.0268C13.3343 17.5581 15.2642 20.0873 17.1823 22.6264C17.3797 22.8871 17.581 22.9966 17.913 22.9947C20.1218 22.9799 22.3316 22.9888 24.5404 22.9828C24.6867 22.9818 24.8625 23.0608 25 22.8881C24.9421 22.8061 24.8871 22.7271 24.8291 22.6501ZM18.3677 20.4082C18.2174 20.4062 18.1674 20.2532 18.0898 20.1525C13.6682 14.3476 9.24769 8.54276 4.82911 2.73692C4.77411 2.66386 4.67688 2.60561 4.7142 2.44173C5.28678 2.44173 5.84365 2.46346 6.39855 2.43384C6.73149 2.41607 6.93282 2.53651 7.13121 2.79813C9.85759 6.40938 12.5948 10.0137 15.328 13.619C16.9633 15.7751 18.5975 17.9312 20.2308 20.0873C20.2887 20.1623 20.3428 20.2413 20.4646 20.4111C19.7103 20.4111 19.0385 20.4161 18.3677 20.4082Z" fill="#3F717A"/>
</svg>
